<mxfile host="app.diagrams.net" modified="2024-06-10T05:41:00.910Z" agent="Mozilla/5.0 (Windows NT 10.0; Win64; x64) AppleWebKit/537.36 (KHTML, like Gecko) Chrome/124.0.0.0 Safari/537.36" etag="-FYVcUTquapWaqwtzXDG" version="24.5.2" type="github">
  <diagram id="yPxyJZ8AM_hMuL3Unpa9" name="complex gitflow">
    <mxGraphModel dx="1434" dy="738" grid="0" gridSize="10" guides="1" tooltips="1" connect="1" arrows="1" fold="1" page="1" pageScale="1" pageWidth="1100" pageHeight="850" math="0" shadow="0">
      <root>
        <mxCell id="0" />
        <mxCell id="1" parent="0" />
        <mxCell id="CS866aalgEdTf8JWfCqD-31" value="" style="rounded=0;whiteSpace=wrap;html=1;" vertex="1" parent="1">
          <mxGeometry x="580" y="240" width="320" height="80" as="geometry" />
        </mxCell>
        <mxCell id="uWUnNED6HEl2aK5fdaIb-10" value="Master" style="verticalLabelPosition=bottom;verticalAlign=top;html=1;strokeWidth=4;shape=mxgraph.flowchart.on-page_reference;plain-blue;gradientColor=none;fillColor=#B5E3Fe;strokeColor=#000000;fontStyle=1" parent="1" vertex="1">
          <mxGeometry x="250" y="260" width="30" height="30" as="geometry" />
        </mxCell>
        <mxCell id="uWUnNED6HEl2aK5fdaIb-80" value="" style="edgeStyle=orthogonalEdgeStyle;curved=1;rounded=0;orthogonalLoop=1;jettySize=auto;html=1;endArrow=none;endFill=0;strokeWidth=4;entryX=0;entryY=0.5;entryDx=0;entryDy=0;entryPerimeter=0;fontStyle=1" parent="1" source="uWUnNED6HEl2aK5fdaIb-11" target="uWUnNED6HEl2aK5fdaIb-109" edge="1">
          <mxGeometry relative="1" as="geometry">
            <mxPoint x="717.5099999999995" y="275" as="targetPoint" />
          </mxGeometry>
        </mxCell>
        <mxCell id="uWUnNED6HEl2aK5fdaIb-11" value="Sub" style="verticalLabelPosition=bottom;verticalAlign=top;html=1;strokeWidth=4;shape=mxgraph.flowchart.on-page_reference;plain-blue;gradientColor=none;strokeColor=#000000;fillColor=#B5E3FE;fontStyle=1" parent="1" vertex="1">
          <mxGeometry x="490" y="260" width="30" height="30" as="geometry" />
        </mxCell>
        <mxCell id="uWUnNED6HEl2aK5fdaIb-109" value="SoftCamp" style="verticalLabelPosition=bottom;verticalAlign=top;html=1;strokeWidth=4;shape=mxgraph.flowchart.on-page_reference;plain-blue;gradientColor=none;strokeColor=#33001A;fillColor=#B5E3FE;fontStyle=1" parent="1" vertex="1">
          <mxGeometry x="607.75" y="260" width="30" height="30" as="geometry" />
        </mxCell>
        <UserObject label="Automation of SK Nexilis Copper Foil Export Documentation" link="https://nvie.com/posts/a-successful-git-branching-model/" id="9hBKPDzoitwpIBdzFDQ7-2">
          <mxCell style="text;whiteSpace=wrap;html=1;fontStyle=1;fontSize=16;" parent="1" vertex="1">
            <mxGeometry x="82.25" y="90" width="477.75" height="20" as="geometry" />
          </mxCell>
        </UserObject>
        <UserObject label="&lt;a href=&quot;https://www.notion.so/SK-nexilis-29e6789f53d549e1b2ab7a488572f2df?pvs=4&quot;&gt;https://nvie.com/posts/a-successful-git-branching-model/&lt;/a&gt;" link="https://www.notion.so/SK-nexilis-29e6789f53d549e1b2ab7a488572f2df?pvs=4" linkTarget="_blank" id="9hBKPDzoitwpIBdzFDQ7-3">
          <mxCell style="text;whiteSpace=wrap;html=1;" parent="1" vertex="1">
            <mxGeometry x="115" y="115" width="355" height="20" as="geometry" />
          </mxCell>
        </UserObject>
        <UserObject label="See:" link="https://nvie.com/posts/a-successful-git-branching-model/" id="9hBKPDzoitwpIBdzFDQ7-7">
          <mxCell style="text;whiteSpace=wrap;html=1;" parent="1" vertex="1">
            <mxGeometry x="82.25" y="115" width="32.75" height="20" as="geometry" />
          </mxCell>
        </UserObject>
        <mxCell id="CS866aalgEdTf8JWfCqD-4" value="" style="endArrow=classic;html=1;rounded=0;strokeWidth=4;" edge="1" parent="1">
          <mxGeometry width="50" height="50" relative="1" as="geometry">
            <mxPoint x="82.25" y="200" as="sourcePoint" />
            <mxPoint x="1040" y="200" as="targetPoint" />
          </mxGeometry>
        </mxCell>
        <mxCell id="CS866aalgEdTf8JWfCqD-5" value="" style="endArrow=classic;html=1;rounded=0;strokeWidth=4;" edge="1" parent="1">
          <mxGeometry width="50" height="50" relative="1" as="geometry">
            <mxPoint x="1040" y="200" as="sourcePoint" />
            <mxPoint x="1040" y="680" as="targetPoint" />
          </mxGeometry>
        </mxCell>
        <mxCell id="CS866aalgEdTf8JWfCqD-6" value="" style="endArrow=classic;html=1;rounded=0;strokeWidth=4;" edge="1" parent="1">
          <mxGeometry width="50" height="50" relative="1" as="geometry">
            <mxPoint x="1040" y="680" as="sourcePoint" />
            <mxPoint x="82.25" y="680" as="targetPoint" />
          </mxGeometry>
        </mxCell>
        <mxCell id="CS866aalgEdTf8JWfCqD-7" value="" style="endArrow=classic;html=1;rounded=0;strokeWidth=4;" edge="1" parent="1">
          <mxGeometry width="50" height="50" relative="1" as="geometry">
            <mxPoint x="81.25" y="680" as="sourcePoint" />
            <mxPoint x="81.25" y="200" as="targetPoint" />
          </mxGeometry>
        </mxCell>
        <UserObject label="schedule [&amp;nbsp;Once a Day ]" link="https://nvie.com/posts/a-successful-git-branching-model/" id="CS866aalgEdTf8JWfCqD-8">
          <mxCell style="text;whiteSpace=wrap;html=1;fontStyle=1;fontSize=16;align=center;" vertex="1" parent="1">
            <mxGeometry x="320.88" y="158" width="477.75" height="20" as="geometry" />
          </mxCell>
        </UserObject>
        <mxCell id="CS866aalgEdTf8JWfCqD-9" value="&lt;div style=&quot;text-align: start;&quot;&gt;&lt;font face=&quot;monospace&quot; color=&quot;#ba0000&quot;&gt;&lt;span style=&quot;font-size: 0px;&quot;&gt;ddasdasd&lt;/span&gt;&lt;/font&gt;&lt;br&gt;&lt;/div&gt;" style="verticalLabelPosition=bottom;verticalAlign=top;html=1;strokeWidth=4;shape=mxgraph.flowchart.on-page_reference;plain-blue;gradientColor=none;fillColor=#B5E3Fe;strokeColor=#000000;" vertex="1" parent="1">
          <mxGeometry x="544.75" y="189" width="30" height="30" as="geometry" />
        </mxCell>
        <mxCell id="CS866aalgEdTf8JWfCqD-12" style="edgeStyle=orthogonalEdgeStyle;rounded=0;orthogonalLoop=1;jettySize=auto;html=1;entryX=0.5;entryY=0;entryDx=0;entryDy=0;entryPerimeter=0;curved=1;strokeWidth=4;" edge="1" parent="1" source="CS866aalgEdTf8JWfCqD-9" target="uWUnNED6HEl2aK5fdaIb-10">
          <mxGeometry relative="1" as="geometry" />
        </mxCell>
        <mxCell id="CS866aalgEdTf8JWfCqD-14" style="edgeStyle=orthogonalEdgeStyle;rounded=0;orthogonalLoop=1;jettySize=auto;html=1;entryX=0;entryY=0.5;entryDx=0;entryDy=0;entryPerimeter=0;strokeWidth=4;fontStyle=1" edge="1" parent="1" source="uWUnNED6HEl2aK5fdaIb-10">
          <mxGeometry relative="1" as="geometry">
            <mxPoint x="369.75" y="275" as="targetPoint" />
          </mxGeometry>
        </mxCell>
        <mxCell id="CS866aalgEdTf8JWfCqD-15" style="edgeStyle=orthogonalEdgeStyle;rounded=0;orthogonalLoop=1;jettySize=auto;html=1;entryX=0;entryY=0.5;entryDx=0;entryDy=0;entryPerimeter=0;strokeWidth=4;fontStyle=1" edge="1" parent="1" target="uWUnNED6HEl2aK5fdaIb-11">
          <mxGeometry relative="1" as="geometry">
            <mxPoint x="399.75" y="275" as="sourcePoint" />
          </mxGeometry>
        </mxCell>
        <mxCell id="CS866aalgEdTf8JWfCqD-17" value="Master" style="verticalLabelPosition=bottom;verticalAlign=top;html=1;strokeWidth=4;shape=mxgraph.flowchart.on-page_reference;plain-blue;gradientColor=none;fillColor=#B5E3Fe;strokeColor=#000000;fontStyle=1" vertex="1" parent="1">
          <mxGeometry x="369.75" y="260" width="30" height="30" as="geometry" />
        </mxCell>
        <mxCell id="CS866aalgEdTf8JWfCqD-18" value="OneDrive" style="verticalLabelPosition=bottom;verticalAlign=top;html=1;strokeWidth=4;shape=mxgraph.flowchart.on-page_reference;plain-blue;gradientColor=none;strokeColor=#33001A;fillColor=#B5E3FE;fontStyle=1" vertex="1" parent="1">
          <mxGeometry x="730" y="260" width="30" height="30" as="geometry" />
        </mxCell>
        <mxCell id="CS866aalgEdTf8JWfCqD-19" style="edgeStyle=orthogonalEdgeStyle;rounded=0;orthogonalLoop=1;jettySize=auto;html=1;entryX=0;entryY=0.5;entryDx=0;entryDy=0;entryPerimeter=0;strokeWidth=4;fontStyle=1" edge="1" parent="1" source="uWUnNED6HEl2aK5fdaIb-109" target="CS866aalgEdTf8JWfCqD-18">
          <mxGeometry relative="1" as="geometry" />
        </mxCell>
        <mxCell id="CS866aalgEdTf8JWfCqD-27" style="edgeStyle=orthogonalEdgeStyle;rounded=0;orthogonalLoop=1;jettySize=auto;html=1;entryX=1;entryY=0.5;entryDx=0;entryDy=0;entryPerimeter=0;curved=1;strokeWidth=4;" edge="1" parent="1" source="CS866aalgEdTf8JWfCqD-20" target="CS866aalgEdTf8JWfCqD-23">
          <mxGeometry relative="1" as="geometry">
            <mxPoint x="920" y="370" as="targetPoint" />
            <Array as="points">
              <mxPoint x="921" y="275" />
              <mxPoint x="921" y="370" />
            </Array>
          </mxGeometry>
        </mxCell>
        <mxCell id="CS866aalgEdTf8JWfCqD-20" value="Outlook" style="verticalLabelPosition=bottom;verticalAlign=top;html=1;strokeWidth=4;shape=mxgraph.flowchart.on-page_reference;plain-blue;gradientColor=none;strokeColor=#33001A;fillColor=#B5E3FE;fontStyle=1" vertex="1" parent="1">
          <mxGeometry x="850" y="260" width="30" height="30" as="geometry" />
        </mxCell>
        <mxCell id="CS866aalgEdTf8JWfCqD-21" style="edgeStyle=orthogonalEdgeStyle;rounded=0;orthogonalLoop=1;jettySize=auto;html=1;entryX=0;entryY=0.5;entryDx=0;entryDy=0;entryPerimeter=0;strokeWidth=4;fontStyle=1" edge="1" parent="1" source="CS866aalgEdTf8JWfCqD-18" target="CS866aalgEdTf8JWfCqD-20">
          <mxGeometry relative="1" as="geometry" />
        </mxCell>
        <mxCell id="CS866aalgEdTf8JWfCqD-28" style="edgeStyle=orthogonalEdgeStyle;rounded=0;orthogonalLoop=1;jettySize=auto;html=1;strokeWidth=4;" edge="1" parent="1" source="CS866aalgEdTf8JWfCqD-23">
          <mxGeometry relative="1" as="geometry">
            <mxPoint x="1040" y="370" as="targetPoint" />
          </mxGeometry>
        </mxCell>
        <mxCell id="CS866aalgEdTf8JWfCqD-35" style="edgeStyle=orthogonalEdgeStyle;rounded=0;orthogonalLoop=1;jettySize=auto;html=1;entryX=1;entryY=0.5;entryDx=0;entryDy=0;curved=1;strokeWidth=4;" edge="1" parent="1" source="CS866aalgEdTf8JWfCqD-23" target="CS866aalgEdTf8JWfCqD-34">
          <mxGeometry relative="1" as="geometry" />
        </mxCell>
        <mxCell id="CS866aalgEdTf8JWfCqD-23" value="IF&lt;div&gt;File exist in shared Foleder&lt;/div&gt;" style="verticalLabelPosition=bottom;verticalAlign=top;html=1;strokeWidth=4;shape=mxgraph.flowchart.on-page_reference;plain-purple;gradientColor=none;strokeColor=#000000;fillColor=#D5E8D4;fontStyle=1" vertex="1" parent="1">
          <mxGeometry x="845" y="350" width="40" height="40" as="geometry" />
        </mxCell>
        <mxCell id="CS866aalgEdTf8JWfCqD-30" value="NO" style="text;html=1;align=center;verticalAlign=middle;whiteSpace=wrap;rounded=0;fontStyle=1;fontSize=16;" vertex="1" parent="1">
          <mxGeometry x="930" y="370" width="60" height="30" as="geometry" />
        </mxCell>
        <mxCell id="CS866aalgEdTf8JWfCqD-32" value="SKC Library Bot" style="text;html=1;align=center;verticalAlign=middle;whiteSpace=wrap;rounded=0;fontStyle=1;fontSize=16;" vertex="1" parent="1">
          <mxGeometry x="676.25" y="210" width="137.5" height="30" as="geometry" />
        </mxCell>
        <mxCell id="CS866aalgEdTf8JWfCqD-34" value="&lt;b&gt;SubMain&lt;/b&gt;&lt;div&gt;&lt;b&gt;1. SAP Logic&lt;br&gt;2.&amp;nbsp;&lt;/b&gt;&lt;span style=&quot;background-color: initial;&quot;&gt;&lt;b&gt;Extract and save results for each process&lt;/b&gt;&lt;/span&gt;&lt;/div&gt;" style="rounded=1;whiteSpace=wrap;html=1;strokeWidth=4;fillColor=#b5e3fe;" vertex="1" parent="1">
          <mxGeometry x="637.75" y="360" width="80" height="260" as="geometry" />
        </mxCell>
        <mxCell id="CS866aalgEdTf8JWfCqD-36" value="YES" style="text;html=1;align=center;verticalAlign=middle;whiteSpace=wrap;rounded=0;fontStyle=1;fontSize=16;" vertex="1" parent="1">
          <mxGeometry x="734.63" y="383" width="60" height="30" as="geometry" />
        </mxCell>
        <mxCell id="CS866aalgEdTf8JWfCqD-37" value="Process 1" style="verticalLabelPosition=bottom;verticalAlign=top;html=1;strokeWidth=4;shape=mxgraph.flowchart.on-page_reference;strokeColor=#b85450;fillColor=#f8cecc;fontStyle=1" vertex="1" parent="1">
          <mxGeometry x="500" y="360" width="30" height="30" as="geometry" />
        </mxCell>
        <mxCell id="CS866aalgEdTf8JWfCqD-38" value="Process 2" style="verticalLabelPosition=bottom;verticalAlign=top;html=1;strokeWidth=4;shape=mxgraph.flowchart.on-page_reference;strokeColor=#d79b00;fillColor=#ffe6cc;fontStyle=1" vertex="1" parent="1">
          <mxGeometry x="500" y="413" width="30" height="30" as="geometry" />
        </mxCell>
        <mxCell id="CS866aalgEdTf8JWfCqD-39" value="Process 3" style="verticalLabelPosition=bottom;verticalAlign=top;html=1;strokeWidth=4;shape=mxgraph.flowchart.on-page_reference;strokeColor=#d6b656;fillColor=#fff2cc;fontStyle=1" vertex="1" parent="1">
          <mxGeometry x="500" y="465" width="30" height="30" as="geometry" />
        </mxCell>
        <mxCell id="CS866aalgEdTf8JWfCqD-40" value="Process 4" style="verticalLabelPosition=bottom;verticalAlign=top;html=1;strokeWidth=4;shape=mxgraph.flowchart.on-page_reference;strokeColor=#82b366;fillColor=#d5e8d4;fontStyle=1" vertex="1" parent="1">
          <mxGeometry x="500" y="520" width="30" height="30" as="geometry" />
        </mxCell>
        <mxCell id="CS866aalgEdTf8JWfCqD-41" value="Process 5" style="verticalLabelPosition=bottom;verticalAlign=top;html=1;strokeWidth=4;shape=mxgraph.flowchart.on-page_reference;strokeColor=#6c8ebf;fillColor=#dae8fc;fontStyle=1" vertex="1" parent="1">
          <mxGeometry x="500" y="580" width="30" height="30" as="geometry" />
        </mxCell>
        <mxCell id="CS866aalgEdTf8JWfCqD-43" value="" style="endArrow=classic;startArrow=classic;html=1;rounded=0;exitX=1;exitY=0.5;exitDx=0;exitDy=0;exitPerimeter=0;entryX=-0.022;entryY=0.054;entryDx=0;entryDy=0;entryPerimeter=0;strokeWidth=4;fillColor=#f8cecc;strokeColor=#b85450;" edge="1" parent="1" source="CS866aalgEdTf8JWfCqD-37" target="CS866aalgEdTf8JWfCqD-34">
          <mxGeometry width="50" height="50" relative="1" as="geometry">
            <mxPoint x="540" y="380" as="sourcePoint" />
            <mxPoint x="590" y="330" as="targetPoint" />
          </mxGeometry>
        </mxCell>
        <mxCell id="CS866aalgEdTf8JWfCqD-44" value="" style="endArrow=classic;startArrow=classic;html=1;rounded=0;exitX=1;exitY=0.5;exitDx=0;exitDy=0;exitPerimeter=0;entryX=-0.022;entryY=0.054;entryDx=0;entryDy=0;entryPerimeter=0;strokeWidth=4;fillColor=#ffe6cc;strokeColor=#d79b00;" edge="1" parent="1">
          <mxGeometry width="50" height="50" relative="1" as="geometry">
            <mxPoint x="531.75" y="428.5" as="sourcePoint" />
            <mxPoint x="637.75" y="427.5" as="targetPoint" />
          </mxGeometry>
        </mxCell>
        <mxCell id="CS866aalgEdTf8JWfCqD-45" value="" style="endArrow=classic;startArrow=classic;html=1;rounded=0;exitX=1;exitY=0.5;exitDx=0;exitDy=0;exitPerimeter=0;entryX=-0.022;entryY=0.054;entryDx=0;entryDy=0;entryPerimeter=0;strokeWidth=4;fillColor=#fff2cc;strokeColor=#d6b656;" edge="1" parent="1">
          <mxGeometry width="50" height="50" relative="1" as="geometry">
            <mxPoint x="531.75" y="480.5" as="sourcePoint" />
            <mxPoint x="637.75" y="479.5" as="targetPoint" />
          </mxGeometry>
        </mxCell>
        <mxCell id="CS866aalgEdTf8JWfCqD-46" value="" style="endArrow=classic;startArrow=classic;html=1;rounded=0;exitX=1;exitY=0.5;exitDx=0;exitDy=0;exitPerimeter=0;entryX=-0.022;entryY=0.054;entryDx=0;entryDy=0;entryPerimeter=0;strokeWidth=4;fillColor=#d5e8d4;strokeColor=#82b366;" edge="1" parent="1">
          <mxGeometry width="50" height="50" relative="1" as="geometry">
            <mxPoint x="531.75" y="535.5" as="sourcePoint" />
            <mxPoint x="637.75" y="534.5" as="targetPoint" />
          </mxGeometry>
        </mxCell>
        <mxCell id="CS866aalgEdTf8JWfCqD-48" value="" style="endArrow=classic;html=1;rounded=0;entryX=1;entryY=0.5;entryDx=0;entryDy=0;entryPerimeter=0;exitX=-0.009;exitY=0.9;exitDx=0;exitDy=0;exitPerimeter=0;strokeWidth=4;fillColor=#dae8fc;strokeColor=#6c8ebf;" edge="1" parent="1" source="CS866aalgEdTf8JWfCqD-34" target="CS866aalgEdTf8JWfCqD-41">
          <mxGeometry width="50" height="50" relative="1" as="geometry">
            <mxPoint x="560" y="640" as="sourcePoint" />
            <mxPoint x="610" y="590" as="targetPoint" />
          </mxGeometry>
        </mxCell>
        <mxCell id="CS866aalgEdTf8JWfCqD-60" style="edgeStyle=orthogonalEdgeStyle;rounded=0;orthogonalLoop=1;jettySize=auto;html=1;entryX=1;entryY=0.5;entryDx=0;entryDy=0;entryPerimeter=0;strokeWidth=4;" edge="1" parent="1" source="CS866aalgEdTf8JWfCqD-50" target="CS866aalgEdTf8JWfCqD-59">
          <mxGeometry relative="1" as="geometry">
            <mxPoint x="290" y="480" as="targetPoint" />
          </mxGeometry>
        </mxCell>
        <mxCell id="CS866aalgEdTf8JWfCqD-50" value="&lt;div&gt;Outlook&lt;/div&gt;Send Result Email" style="verticalLabelPosition=bottom;verticalAlign=top;html=1;strokeWidth=4;shape=mxgraph.flowchart.on-page_reference;plain-blue;gradientColor=none;fillColor=#B5E3Fe;strokeColor=#000000;fontStyle=1" vertex="1" parent="1">
          <mxGeometry x="369.75" y="465" width="30" height="30" as="geometry" />
        </mxCell>
        <mxCell id="CS866aalgEdTf8JWfCqD-51" style="edgeStyle=orthogonalEdgeStyle;rounded=0;orthogonalLoop=1;jettySize=auto;html=1;entryX=1;entryY=0.5;entryDx=0;entryDy=0;entryPerimeter=0;curved=1;strokeWidth=4;" edge="1" parent="1" source="CS866aalgEdTf8JWfCqD-41" target="CS866aalgEdTf8JWfCqD-50">
          <mxGeometry relative="1" as="geometry" />
        </mxCell>
        <mxCell id="CS866aalgEdTf8JWfCqD-59" value="OneDrive&lt;br&gt;File Upload" style="verticalLabelPosition=bottom;verticalAlign=top;html=1;strokeWidth=4;shape=mxgraph.flowchart.on-page_reference;plain-blue;gradientColor=none;strokeColor=#33001A;fillColor=#B5E3FE;fontStyle=1" vertex="1" parent="1">
          <mxGeometry x="250" y="465" width="30" height="30" as="geometry" />
        </mxCell>
        <mxCell id="CS866aalgEdTf8JWfCqD-63" style="edgeStyle=orthogonalEdgeStyle;rounded=0;orthogonalLoop=1;jettySize=auto;html=1;strokeWidth=4;" edge="1" parent="1" source="CS866aalgEdTf8JWfCqD-61">
          <mxGeometry relative="1" as="geometry">
            <mxPoint x="80" y="480" as="targetPoint" />
          </mxGeometry>
        </mxCell>
        <mxCell id="CS866aalgEdTf8JWfCqD-61" value="All Task Kill" style="verticalLabelPosition=bottom;verticalAlign=top;html=1;strokeWidth=4;shape=mxgraph.flowchart.on-page_reference;plain-blue;gradientColor=none;strokeColor=#33001A;fillColor=#B5E3FE;fontStyle=1" vertex="1" parent="1">
          <mxGeometry x="130" y="465" width="30" height="30" as="geometry" />
        </mxCell>
        <mxCell id="CS866aalgEdTf8JWfCqD-62" style="edgeStyle=orthogonalEdgeStyle;rounded=0;orthogonalLoop=1;jettySize=auto;html=1;entryX=1;entryY=0.5;entryDx=0;entryDy=0;entryPerimeter=0;strokeWidth=4;" edge="1" parent="1" source="CS866aalgEdTf8JWfCqD-59" target="CS866aalgEdTf8JWfCqD-61">
          <mxGeometry relative="1" as="geometry" />
        </mxCell>
      </root>
    </mxGraphModel>
  </diagram>
</mxfile>
